HIERARCHY
ROOT Pelvis
{
	OFFSET -0.217368 -24.078917 2.858379
	CHANNELS 6 Xposition Yposition Zposition Zrotation Yrotation Xrotation 
	JOINT Left_hip
	{
		OFFSET 5.858135 -8.228005 -1.766408
		CHANNELS 3 Zrotation Yrotation Xrotation
		JOINT Left_knee
		{
			OFFSET 4.345143 -38.646942 0.803700
			CHANNELS 3 Zrotation Yrotation Xrotation
			JOINT Left_ankle
			{
				OFFSET -1.479033 -42.687447 -3.742800
				CHANNELS 3 Zrotation Yrotation Xrotation
				JOINT Left_foot
				{
					OFFSET 4.105436 -6.028605 12.204244
					CHANNELS 3 Zrotation Yrotation Xrotation
					End Site
					{
						OFFSET 0.000000 0.000000 0.000000
					}
				}
			}
		}
	}
	JOINT Right_hip
	{
		OFFSET -6.030973 -9.051328 -1.354253
		CHANNELS 3 Zrotation Yrotation Xrotation
		JOINT Right_knee
		{
			OFFSET -4.325663 -38.368790 -0.484304
			CHANNELS 3 Zrotation Yrotation Xrotation
			JOINT Right_ankle
			{
				OFFSET 1.905555 -42.004566 -3.456167
				CHANNELS 3 Zrotation Yrotation Xrotation
				JOINT Right_foot
				{
					OFFSET -3.483987 -6.210554 13.032330
					CHANNELS 3 Zrotation Yrotation Xrotation
					End Site
					{
						OFFSET 0.000000 0.000000 0.000000
					}
				}
			}
		}
	}
	JOINT Spine1
	{
		OFFSET 0.443945 12.440353 -3.838522
		CHANNELS 3 Zrotation Yrotation Xrotation
		JOINT Spine2
		{
			OFFSET 0.448844 13.795640 2.682033
			CHANNELS 3 Zrotation Yrotation Xrotation
			JOINT Spine3
			{
				OFFSET -0.226460 5.603239 0.285504
				CHANNELS 3 Zrotation Yrotation Xrotation
				JOINT Neck
				{
					OFFSET -1.339018 21.163553 -3.346758
					CHANNELS 3 Zrotation Yrotation Xrotation
					JOINT Head
					{
						OFFSET 1.011321 8.893734 5.040987
						CHANNELS 3 Zrotation Yrotation Xrotation
						End Site
						{
							OFFSET 0.000000 0.000000 0.000000
						}
					}
				}
				JOINT Left_collar
				{
					OFFSET 7.170247 11.399971 -1.889817
					CHANNELS 3 Zrotation Yrotation Xrotation
					JOINT Left_shoulder
					{
						OFFSET 12.292140 4.520507 -1.904600
						CHANNELS 3 Zrotation Yrotation Xrotation
						JOINT Left_elbow
						{
							OFFSET 25.533188 -1.564902 -2.294648
							CHANNELS 3 Zrotation Yrotation Xrotation
							JOINT Left_wrist
							{
								OFFSET 26.570929 1.269810 -0.737473
								CHANNELS 3 Zrotation Yrotation Xrotation
								JOINT Left_palm
								{
									OFFSET 8.669054 -1.063602 -1.559429
									CHANNELS 3 Zrotation Yrotation Xrotation
									End Site
									{
										OFFSET 0.000000 0.000000 0.000000
									}
								}
							}
						}
					}
				}
				JOINT Right_collar
				{
					OFFSET -8.295364 11.247234 -2.370738
					CHANNELS 3 Zrotation Yrotation Xrotation
					JOINT Right_shoulder
					{
						OFFSET -11.322830 4.685326 -0.847207
						CHANNELS 3 Zrotation Yrotation Xrotation
						JOINT Right_elbow
						{
							OFFSET -26.012751 -1.436928 -3.126872
							CHANNELS 3 Zrotation Yrotation Xrotation
							JOINT Right_wrist
							{
								OFFSET -26.910841 0.679372 -0.602677
								CHANNELS 3 Zrotation Yrotation Xrotation
								JOINT Right_palm
								{
									OFFSET -8.875370 -0.865157 -1.010708
									CHANNELS 3 Zrotation Yrotation Xrotation
									End Site
									{
										OFFSET 0.000000 0.000000 0.000000
									}
								}
							}
						}
					}
				}
			}
		}
	}
}
MOTION
Frames: 15
Frame Time: 0.016667
-0.217368 36.232262 2.858379 -0.731216 3.724843 -23.684158 14.226548 1.662050 -51.929192 -13.639018 11.884184 86.671807 9.538549 18.982482 -16.213222 0.000000 0.000000 0.000000 -13.478341 -0.682030 -52.151629 15.919737 -13.822376 86.876580 -8.222983 -20.114808 -12.746564 0.000000 0.000000 0.000000 -2.820544 -0.544805 34.241097 4.929013 -0.581984 -23.850395 0.448181 1.976273 23.001856 -1.968569 2.230148 -14.248124 0.000000 0.000000 0.000000 -24.717521 -16.409642 7.335494 -50.035151 -17.279942 1.591259 -12.152433 -56.581407 8.773664 0.000000 0.000000 0.000000 0.000000 0.000000 0.000000 22.033744 19.157326 8.933744 47.071415 15.801987 1.861940 9.480384 63.131619 7.894523 0.000000 0.000000 0.000000 0.000000 0.000000 0.000000 
-0.229915 36.228607 2.835759 -0.908370 5.105878 -22.665591 13.621073 1.431432 -53.557868 -12.631189 10.843852 87.435377 9.342938 18.417168 -16.053975 0.000000 0.000000 0.000000 -13.306765 -0.623906 -53.203694 14.827196 -12.609271 87.154714 -7.905907 -19.180393 -8.889693 0.000000 0.000000 0.000000 -3.510141 -0.326332 34.252763 6.347364 -0.758441 -25.917227 0.172167 1.225604 23.392595 -2.524168 2.571647 -14.434452 0.000000 0.000000 0.000000 -24.759830 -16.078995 7.132236 -50.605734 -17.295824 1.629454 -16.035743 -58.187607 11.258342 0.000000 0.000000 0.000000 0.000000 0.000000 0.000000 22.044386 19.092267 8.895696 47.683236 15.230088 1.675603 11.035790 64.472971 9.079701 0.000000 0.000000 0.000000 0.000000 0.000000 0.000000 
-0.228065 36.313614 2.839043 -0.962376 3.769837 -21.710383 14.557546 1.955673 -55.012175 -13.068071 11.443503 87.856850 9.495223 19.040039 -11.853848 0.000000 0.000000 0.000000 -11.699019 0.131982 -54.428375 13.993132 -11.797299 87.987772 -7.895650 -19.146260 -9.004650 0.000000 0.000000 0.000000 -2.810325 -0.536099 33.566948 6.276598 -0.800974 -25.203660 -0.054781 1.969681 23.850273 -1.894162 2.283693 -16.474967 0.000000 0.000000 0.000000 -26.651736 -17.022152 7.884915 -47.879450 -17.834024 1.697417 -12.513285 -58.408873 9.317043 0.000000 0.000000 0.000000 0.000000 0.000000 0.000000 22.501494 19.310563 9.080035 46.846284 15.680609 1.801021 11.105506 64.156195 9.065311 0.000000 0.000000 0.000000 0.000000 0.000000 0.000000 
-0.241773 36.475533 2.836858 -1.438560 4.685652 -21.189074 13.344468 1.368765 -55.858369 -11.291118 9.352376 88.066211 8.956285 17.699188 -11.030315 0.000000 0.000000 0.000000 -11.781538 0.090777 -54.727332 14.201336 -11.801927 86.780340 -8.232664 -20.152086 -6.399076 0.000000 0.000000 0.000000 -2.661234 -0.577472 33.308834 7.559173 -0.935828 -26.955061 -0.164865 1.273069 24.870451 -4.256703 3.649242 -16.847198 0.000000 0.000000 0.000000 -27.319714 -15.896032 7.203212 -47.015748 -17.786083 1.626985 -15.754951 -57.458367 10.933472 0.000000 0.000000 0.000000 0.000000 0.000000 0.000000 21.781426 19.978991 9.399258 46.216026 14.608326 1.357141 11.236934 64.058951 9.128864 0.000000 0.000000 0.000000 0.000000 0.000000 0.000000 
-0.236143 36.538521 2.839112 -1.385461 4.432178 -20.932209 13.367631 1.387455 -56.067523 -10.806199 8.762934 88.017288 8.518032 16.473580 -11.987124 0.000000 0.000000 0.000000 -11.681226 0.138591 -55.165834 13.894684 -11.644791 87.807278 -8.278665 -20.277988 -6.205393 0.000000 0.000000 0.000000 -3.008176 -0.471690 33.379083 7.303229 -0.879342 -26.965092 0.313136 1.052552 25.059508 -5.054806 4.104481 -16.863931 0.000000 0.000000 0.000000 -26.816448 -16.031960 7.254702 -46.486517 -18.204734 1.758899 -15.071583 -55.377541 10.101395 0.000000 0.000000 0.000000 0.000000 0.000000 0.000000 21.238596 20.187139 9.456913 45.282360 14.789650 1.376813 9.704521 62.572501 7.939418 0.000000 0.000000 0.000000 0.000000 0.000000 0.000000 
-0.238521 36.616837 2.841598 -1.569673 4.440448 -21.100341 12.635304 1.012393 -56.229344 -9.080536 6.739065 88.444825 7.691325 14.416648 -11.143429 0.000000 0.000000 0.000000 -11.570761 0.192209 -55.734753 13.889136 -11.694832 88.094758 -8.111347 -19.841488 -3.956014 0.000000 0.000000 0.000000 -2.998651 -0.476285 33.483290 7.448299 -0.950926 -26.531365 0.331582 1.243615 24.998978 -5.125106 4.145752 -17.062816 0.000000 0.000000 0.000000 -26.110407 -16.785902 7.686079 -46.101056 -18.840464 1.980272 -15.700613 -55.010814 10.354911 0.000000 0.000000 0.000000 0.000000 0.000000 0.000000 20.732438 20.956310 9.848636 44.904257 14.993894 1.431529 9.051703 62.192604 7.490304 0.000000 0.000000 0.000000 0.000000 0.000000 0.000000 
-0.237557 36.665199 2.840363 -1.588675 4.256193 -21.240437 12.525003 0.955648 -56.252227 -8.994989 6.686107 88.901619 7.718109 14.537155 -10.828365 0.000000 0.000000 0.000000 -11.531101 0.211927 -55.820235 13.502440 -11.308564 88.484571 -8.056795 -19.706764 -3.498707 0.000000 0.000000 0.000000 -2.890878 -0.515946 33.854217 7.266439 -0.926343 -26.359627 0.425465 1.400715 25.328548 -5.191519 4.184554 -17.272136 0.000000 0.000000 0.000000 -25.502878 -17.179849 7.885911 -45.796302 -19.684054 2.283539 -15.368915 -54.265035 10.017680 0.000000 0.000000 0.000000 0.000000 0.000000 0.000000 20.481796 21.257886 9.993032 44.322099 16.118291 1.803937 6.690543 61.428658 5.995808 0.000000 0.000000 0.000000 0.000000 0.000000 0.000000 
-0.235741 36.665115 2.839211 -1.719055 4.463509 -21.381200 11.789031 0.573891 -56.288366 -8.376422 5.984080 89.437198 7.693327 14.504531 -10.631377 0.000000 0.000000 0.000000 -11.502209 0.226115 -56.154131 13.287634 -11.102969 88.762375 -8.064031 -19.741888 -2.068278 0.000000 0.000000 0.000000 -2.660974 -0.586053 33.753612 7.394708 -1.003244 -25.835193 0.376022 1.356342 25.664602 -5.533777 4.378499 -17.684262 0.000000 0.000000 0.000000 -25.085447 -17.706816 8.182115 -45.171735 -20.336732 2.482452 -15.154167 -53.289089 9.698039 0.000000 0.000000 0.000000 0.000000 0.000000 0.000000 20.123558 21.887006 10.313014 43.512573 16.773349 1.981997 4.854019 60.876033 4.870697 0.000000 0.000000 0.000000 0.000000 0.000000 0.000000 
-0.230936 36.654137 2.841468 -1.683259 4.377026 -21.325619 11.485068 0.418749 -56.535911 -8.226109 5.830263 89.763848 7.696206 14.608310 -10.017573 0.000000 0.000000 0.000000 -11.323320 0.316707 -56.502517 12.839234 -10.601794 88.982096 -8.021760 -19.643422 -1.696991 0.000000 0.000000 0.000000 -2.760924 -0.554371 33.728192 7.475728 -1.058504 -25.439635 0.411557 1.388666 25.681186 -5.723705 4.484918 -17.652013 0.000000 0.000000 0.000000 -25.055913 -18.425592 8.634091 -43.925033 -20.712888 2.515474 -14.762360 -51.668621 9.164131 0.000000 0.000000 0.000000 0.000000 0.000000 0.000000 20.089974 22.681723 10.775138 42.396325 17.129893 2.024296 3.840464 59.862942 4.198949 0.000000 0.000000 0.000000 0.000000 0.000000 0.000000 
-0.232149 36.618744 2.833912 -1.891529 4.552891 -21.252613 11.383528 0.369485 -56.899173 -7.579072 5.021230 89.677760 7.422928 13.973400 -9.675571 0.000000 0.000000 0.000000 -11.475717 0.239286 -56.502928 12.730491 -10.450981 88.873196 -8.069188 -19.763252 -1.258065 0.000000 0.000000 0.000000 -2.651812 -0.589980 33.809011 7.393103 -1.047289 -25.354367 0.707419 1.137837 25.549111 -6.282837 4.799396 -17.493249 0.000000 0.000000 0.000000 -24.816315 -18.706260 8.786555 -43.064453 -20.592538 2.396787 -15.760664 -50.581890 9.420803 0.000000 0.000000 0.000000 0.000000 0.000000 0.000000 19.902946 23.130822 11.010135 41.256779 17.014420 1.901451 3.490543 59.634466 3.983135 0.000000 0.000000 0.000000 0.000000 0.000000 0.000000 
-0.239294 36.601402 2.826729 -1.900663 4.530784 -20.907453 11.447043 0.405628 -57.140530 -7.418613 4.792021 89.286060 7.401587 13.939134 -9.561888 0.000000 0.000000 0.000000 -11.415204 0.270045 -56.632618 12.600290 -10.291132 88.858346 -8.146745 -19.947182 -1.609801 0.000000 0.000000 0.000000 -2.666295 -0.587336 33.907887 7.379533 -1.039129 -25.408675 0.854221 1.148584 25.457852 -6.418168 4.876346 -17.392460 0.000000 0.000000 0.000000 -24.343306 -18.807736 8.799969 -42.707286 -20.760536 2.425674 -16.090889 -50.345282 9.527899 0.000000 0.000000 0.000000 0.000000 0.000000 0.000000 19.434085 23.380947 11.081793 40.476335 17.354168 1.954284 2.751263 60.067458 3.601767 0.000000 0.000000 0.000000 0.000000 0.000000 0.000000 
-0.244673 36.627029 2.818111 -1.868869 4.529958 -20.676730 11.265735 0.312198 -57.415956 -7.504942 4.903829 89.357433 7.567625 14.334273 -9.696900 0.000000 0.000000 0.000000 -11.261089 0.348267 -56.472468 12.393189 -10.057217 88.954106 -8.060263 -19.726841 -2.566367 0.000000 0.000000 0.000000 -2.671428 -0.584472 33.842091 7.351854 -1.057944 -25.134851 1.086962 1.120857 25.272489 -7.097605 5.263472 -17.117925 0.000000 0.000000 0.000000 -23.943315 -19.221507 9.014387 -42.485750 -20.565437 2.337385 -16.331698 -50.604149 9.699955 0.000000 0.000000 0.000000 0.000000 0.000000 0.000000 18.803565 24.219219 11.463872 39.869458 17.422898 1.930012 2.159338 60.020861 3.264537 0.000000 0.000000 0.000000 0.000000 0.000000 0.000000 
-0.245672 36.637810 2.817214 -1.833902 4.494547 -20.234916 11.307132 0.332863 -57.273748 -7.493994 4.881342 89.243994 7.632484 14.363581 -10.534186 0.000000 0.000000 0.000000 -11.407382 0.274020 -56.589316 12.228978 -9.838028 88.830434 -7.971833 -19.495430 -3.219898 0.000000 0.000000 0.000000 -2.508783 -0.632834 33.716809 7.202457 -1.041688 -24.929065 0.969178 1.110578 25.273092 -6.923837 5.168283 -16.900195 0.000000 0.000000 0.000000 -23.691515 -19.758048 9.318663 -42.368775 -20.699635 2.374550 -14.395399 -50.791078 8.808325 0.000000 0.000000 0.000000 0.000000 0.000000 0.000000 18.734348 24.868189 11.826754 39.349215 17.715019 1.981438 0.135000 59.833862 2.115826 0.000000 0.000000 0.000000 0.000000 0.000000 0.000000 
-0.246401 36.695862 2.806932 -1.688808 4.594514 -19.682181 11.194899 0.274083 -57.367527 -7.703999 5.151918 89.394368 7.882395 14.901677 -11.233609 0.000000 0.000000 0.000000 -11.238346 0.360827 -56.961173 11.960223 -9.537698 88.981542 -7.973946 -19.486047 -4.022145 0.000000 0.000000 0.000000 -2.375287 -0.667858 33.413318 6.905865 -1.016907 -24.417308 0.892656 1.206103 24.959874 -6.724303 5.057477 -16.684356 0.000000 0.000000 0.000000 -23.101280 -20.310505 9.588273 -42.651184 -21.305216 2.614235 -12.038937 -51.050330 7.723570 0.000000 0.000000 0.000000 0.000000 0.000000 0.000000 18.368874 25.161756 11.930680 39.456309 18.100921 2.110896 -1.193597 59.810659 1.370063 0.000000 0.000000 0.000000 0.000000 0.000000 0.000000 
-0.256695 36.612526 2.797190 -1.744117 4.993778 -19.416718 10.963020 0.152968 -57.745208 -7.616997 5.063122 89.616732 7.891148 14.908450 -11.340746 0.000000 0.000000 0.000000 -11.351634 0.302815 -57.095469 12.189520 -9.833668 89.092472 -8.005315 -19.559569 -4.475225 0.000000 0.000000 0.000000 -2.247557 -0.704292 33.280900 6.701635 -1.017534 -23.842413 0.873958 1.310905 24.511931 -6.125844 4.717385 -16.349401 0.000000 0.000000 0.000000 -22.990969 -20.652948 9.784632 -42.713549 -21.742668 2.776125 -10.102953 -51.527589 6.867100 0.000000 0.000000 0.000000 0.000000 0.000000 0.000000 18.009227 25.100975 11.831383 39.443001 18.657947 2.284692 -2.449119 58.867576 0.654730 0.000000 0.000000 0.000000 0.000000 0.000000 0.000000 
